<svg width="1937" height="160" viewBox="0 0 1937 160" fill="none" xmlns="http://www.w3.org/2000/svg">
<path d="M98.7485 155.496H49.4814V43.9678H0V5.36193H148.23V43.9678H98.7485V155.496Z" fill="#CCE8EB"/>
<path d="M147.495 155.496V5.36193H283.515V41.8231H196.976V63.4853H279.445V97.8016H196.976V119.035H283.515V155.496H147.495Z" fill="#CCE8EB"/>
<path d="M366.618 97.1582C358.264 78.4987 355.694 66.4879 355.694 45.4692V43.9678H345.84V155.496H299.572V5.36193H367.475L393.394 63.4853C401.748 82.1448 404.318 94.1555 404.318 115.174V116.89H414.172V5.14746H460.44V155.496H392.537L366.618 97.1582Z" fill="#CCE8EB"/>
<path d="M558.062 155.496V104.879L493.158 5.36193H549.708L564.703 30.4558C575.199 48.2574 578.412 59.8391 578.412 80.8579V80H588.051V81.2869C588.051 60.6971 591.264 49.3298 602.403 31.3137L618.897 5.36193H672.234L607.33 107.882V155.496H558.062Z" fill="#CCE8EB"/>
<path d="M655.068 155.496V5.36193H791.088V41.8231H704.549V63.4853H787.018V97.8016H704.549V119.035H791.088V155.496H655.068Z" fill="#CCE8EB"/>
<path d="M776.89 155.496L835.582 5.36193H901.557L961.32 155.496H908.626L899.843 131.903H836.01L826.799 155.496H776.89ZM849.505 97.3727H887.205L882.921 86.0054C876.067 67.9893 873.71 55.9786 873.496 37.1046H864.071C863.857 55.3351 861.501 67.1314 854.218 85.5764L849.505 97.3727Z" fill="#CCE8EB"/>
<path d="M1044.56 155.496L996.367 94.5845V155.496H946.886V5.36193H1042.64C1076.91 5.36193 1099.83 22.3056 1099.83 51.9035C1099.83 80 1079.48 98.6595 1042.64 98.6595H1018.86V108.097H1043.06C1063.63 108.097 1073.91 112.601 1087.83 128.686L1110.97 155.496H1044.56ZM996.367 66.7024H1032.78C1041.99 66.7024 1046.92 62.4129 1046.92 54.6917C1046.92 47.3995 1041.99 43.3244 1032.78 43.3244H996.367V66.7024Z" fill="#CCE8EB"/>
<path d="M1174.34 160C1133.86 160 1106.44 146.488 1092.52 123.968L1133.43 96.7292C1138.36 116.247 1158.06 123.324 1175.63 123.324C1194.05 123.324 1204.12 116.89 1204.12 109.169C1204.12 98.0161 1192.34 97.1582 1170.7 96.9437C1151 96.7292 1099.59 96.0858 1099.59 53.4048C1099.59 17.1582 1136.22 0 1172.63 0C1209.9 0 1238.61 14.37 1250.39 33.4585L1206.9 55.7641C1201.98 43.5389 1187.2 37.1045 1171.56 37.1045C1154.64 37.1045 1147.14 42.0375 1147.14 48.9008C1147.14 57.2654 1155.49 57.6944 1176.7 57.9088C1201.55 58.1233 1253.39 58.9812 1253.39 104.665C1253.39 139.839 1216.54 160 1174.34 160Z" fill="#CCE8EB"/>
<path d="M1292.75 155.496L1351.45 5.36193H1417.42L1477.19 155.496H1424.49L1415.71 131.903H1351.88L1342.66 155.496H1292.75ZM1365.37 97.3727H1403.07L1398.79 86.0054C1391.93 67.9893 1389.58 55.9786 1389.36 37.1046H1379.94C1379.72 55.3351 1377.37 67.1314 1370.08 85.5764L1365.37 97.3727Z" fill="#CCE8EB"/>
<path d="M1476.5 155.496L1438.37 5.36193H1488.5L1500.71 58.5523C1505.2 78.4987 1506.7 90.9383 1506.7 111.957V117.105H1516.56V111.957C1516.56 91.3673 1517.63 79.1421 1521.7 58.3378L1531.98 5.36193H1585.74L1595.6 58.3378C1599.45 78.4987 1600.52 90.9383 1600.52 111.957V117.105H1610.38V111.957C1610.38 91.3673 1611.66 79.1421 1616.59 58.5523L1628.8 5.36193H1676.35L1638.22 155.496H1576.96L1568.61 113.244C1564.75 93.0831 1563.47 80.6434 1563.47 59.6247V43.5389H1553.61V59.6247C1553.61 80.2145 1552.54 92.4397 1548.26 113.244L1539.9 155.496H1476.5Z" fill="#CCE8EB"/>
<path d="M1637.43 155.496L1696.12 5.36193H1762.1L1821.86 155.496H1769.17L1760.38 131.903H1696.55L1687.34 155.496H1637.43ZM1710.05 97.3727H1747.75L1743.46 86.0054C1736.61 67.9893 1734.25 55.9786 1734.04 37.1046H1724.61C1724.4 55.3351 1722.04 67.1314 1714.76 85.5764L1710.05 97.3727Z" fill="#CCE8EB"/>
<path d="M1822.83 155.496V104.879L1757.92 5.36193H1814.47L1829.47 30.4558C1839.97 48.2574 1843.18 59.8391 1843.18 80.8579V80H1852.82V81.2869C1852.82 60.6971 1856.03 49.3298 1867.17 31.3137L1883.66 5.36193H1937L1872.1 107.882V155.496H1822.83Z" fill="#CCE8EB"/>
</svg>
